<?xml version="1.0" standalone="no"?>
<!DOCTYPE svg PUBLIC "-//W3C//DTD SVG 20010904//EN"
 "http://www.w3.org/TR/2001/REC-SVG-20010904/DTD/svg10.dtd">
<svg version="1.0" xmlns="http://www.w3.org/2000/svg"
 width="1234.000000pt" height="558.000000pt" viewBox="0 0 1234.000000 558.000000"
 preserveAspectRatio="xMidYMid meet">

<g transform="translate(0.000000,558.000000) scale(0.100000,-0.100000)"
fill="#000000" stroke="none">
<path d="M0 2790 l0 -2790 6170 0 6170 0 0 2790 0 2790 -6170 0 -6170 0 0
-2790z m5102 905 c44 -119 45 -125 15 -125 -16 0 -26 9 -34 30 -10 26 -16 30
-48 30 -31 0 -37 -4 -46 -30 -8 -22 -17 -30 -35 -30 -13 0 -24 2 -24 4 0 3 61
172 75 209 5 12 16 17 34 15 23 -3 30 -14 63 -103z m238 21 c0 -46 3 -98 6
-115 6 -27 4 -31 -14 -31 -12 0 -24 5 -28 11 -4 8 -9 8 -17 0 -20 -20 -76 -13
-102 14 -51 50 -18 145 49 145 17 0 37 -5 44 -12 9 -9 12 -3 12 30 0 38 2 42
25 42 25 0 25 -1 25 -84z m410 64 c0 -13 -7 -20 -20 -20 -13 0 -20 7 -20 20 0
13 7 20 20 20 13 0 20 -7 20 -20z m310 0 c0 -15 -7 -20 -25 -20 -18 0 -25 5
-25 20 0 15 7 20 25 20 18 0 25 -5 25 -20z m880 0 c0 -15 -7 -20 -25 -20 -18
0 -25 5 -25 20 0 15 7 20 25 20 18 0 25 -5 25 -20z m-600 -15 c0 -16 6 -25 15
-25 8 0 15 -7 15 -15 0 -8 -7 -15 -15 -15 -11 0 -15 -12 -15 -50 0 -43 3 -50
18 -48 11 2 17 -3 17 -17 0 -17 -7 -20 -40 -20 l-40 0 -3 63 c-2 44 -7 65 -17
69 -20 7 -19 33 0 33 9 0 15 9 15 25 0 20 5 25 25 25 20 0 25 -5 25 -25z m470
0 c0 -16 6 -25 15 -25 8 0 15 -7 15 -15 0 -8 -7 -15 -15 -15 -11 0 -15 -12
-15 -51 0 -46 2 -51 19 -46 13 3 21 -1 24 -14 5 -19 -11 -29 -47 -29 -35 0
-46 20 -46 82 0 32 -4 58 -10 58 -5 0 -10 7 -10 15 0 8 5 15 10 15 6 0 10 11
10 25 0 20 5 25 25 25 20 0 25 -5 25 -25z m-1370 -37 c0 -9 3 -9 12 0 16 16
70 16 86 0 9 -9 15 -9 24 0 7 7 27 12 45 12 42 0 53 -21 53 -104 0 -64 -1 -66
-25 -66 -24 0 -25 3 -25 60 0 45 -4 62 -15 66 -28 11 -45 -16 -45 -72 0 -51
-1 -54 -25 -54 -24 0 -25 3 -25 60 0 45 -4 62 -15 66 -28 11 -45 -16 -45 -72
0 -51 -1 -54 -25 -54 -25 0 -25 1 -25 85 0 84 0 85 25 85 14 0 25 -5 25 -12z
m310 -73 c0 -78 -2 -85 -20 -85 -18 0 -20 7 -20 85 0 78 2 85 20 85 18 0 20
-7 20 -85z m100 73 c0 -9 3 -9 12 0 16 16 70 16 86 0 7 -7 12 -42 12 -85 0
-71 -1 -73 -25 -73 -24 0 -25 3 -25 59 0 65 -9 78 -40 61 -16 -9 -20 -21 -20
-65 0 -52 -1 -55 -25 -55 -25 0 -25 1 -25 85 0 84 0 85 25 85 14 0 25 -5 25
-12z m210 -73 c0 -84 0 -85 -25 -85 -25 0 -25 1 -25 85 0 84 0 85 25 85 25 0
25 -1 25 -85z m163 73 c27 -21 7 -41 -28 -28 -21 8 -31 8 -39 -1 -7 -7 -7 -13
-1 -15 77 -29 102 -65 70 -98 -19 -19 -73 -21 -109 -5 -20 10 -23 15 -16 30 9
16 12 16 41 2 24 -12 33 -13 42 -3 8 8 8 14 2 16 -77 29 -100 61 -69 95 20 22
81 26 107 7z m237 0 c0 -9 3 -9 12 0 7 7 20 12 30 12 29 0 21 -33 -12 -52 -27
-15 -30 -22 -30 -68 0 -43 -3 -50 -20 -50 -18 0 -20 7 -20 85 0 78 2 85 20 85
11 0 20 -5 20 -12z m223 -5 c16 -19 22 -39 31 -109 l6 -41 -75 -1 c-66 0 -77
2 -90 21 -19 28 -19 33 5 57 13 13 33 20 60 20 30 0 38 3 34 14 -8 21 -31 27
-61 15 -20 -7 -28 -6 -34 3 -23 35 93 54 124 21z m257 -68 c0 -84 0 -85 -25
-85 -25 0 -25 1 -25 85 0 84 0 85 25 85 25 0 25 -1 25 -85z m96 30 c10 -30 20
-52 23 -49 3 3 13 26 22 52 11 34 22 48 37 50 28 4 28 4 -5 -90 -27 -75 -29
-79 -57 -76 -26 3 -31 10 -57 82 -16 44 -29 81 -29 83 0 2 11 3 24 3 21 0 28
-8 42 -55z m279 30 c56 -56 16 -145 -65 -145 -51 0 -90 37 -90 85 0 76 100
115 155 60z m-3525 -615 c0 -5 -11 -10 -25 -10 -14 0 -25 -4 -25 -10 0 -5 9
-10 20 -10 11 0 20 -4 20 -10 0 -5 -9 -10 -20 -10 -11 0 -20 -7 -20 -15 0 -9
9 -15 25 -15 14 0 25 -4 25 -10 0 -5 -16 -10 -35 -10 l-35 0 0 55 0 55 35 0
c19 0 35 -4 35 -10z m290 0 c0 -5 -7 -10 -15 -10 -8 0 -15 5 -15 10 0 6 7 10
15 10 8 0 15 -4 15 -10z m50 -35 c0 -25 5 -45 10 -45 6 0 10 -5 10 -11 0 -6
-10 -9 -22 -7 -20 3 -23 10 -26 56 -2 42 0 52 12 52 12 0 16 -11 16 -45z
m-202 -27 c4 -42 -15 -53 -20 -13 -2 14 -7 26 -13 26 -5 0 -11 -12 -13 -26 -5
-35 -22 -31 -22 5 0 17 -4 30 -10 30 -5 0 -10 -13 -10 -30 0 -20 -5 -30 -15
-30 -11 0 -15 11 -15 39 l0 39 58 -2 57 -1 3 -37z m92 23 c5 -11 10 -29 10
-41 0 -18 -5 -21 -37 -18 -30 2 -38 7 -38 23 0 12 9 22 25 26 24 7 24 7 3 8
-31 1 -29 21 2 21 14 0 29 -8 35 -19z m60 -21 c0 -29 -4 -40 -15 -40 -11 0
-15 11 -15 40 0 29 4 40 15 40 11 0 15 -11 15 -40z m3338 -117 c-685 -2 -1810
-2 -2500 0 -689 1 -128 2 1247 2 1375 0 1939 -1 1253 -2z m1107 -493 c-38 -38
-74 -70 -78 -70 -5 0 -4 7 3 15 10 12 10 19 2 27 -34 34 10 85 78 91 25 2 49
4 55 5 5 1 -22 -29 -60 -68z m-4746 45 c-1 -5 -10 -9 -21 -7 -28 5 -21 -15 8
-22 20 -5 25 -12 22 -34 -3 -23 -7 -27 -37 -27 -19 0 -36 6 -38 12 -3 9 4 11
26 7 39 -8 40 1 1 21 -32 17 -38 33 -18 53 15 15 60 12 57 -3z m261 1 c0 -8
10 -16 23 -18 18 -2 23 -10 25 -40 2 -29 0 -38 -12 -38 -11 0 -16 9 -16 30 0
17 -4 30 -10 30 -5 0 -10 -13 -10 -30 0 -20 -5 -30 -15 -30 -12 0 -15 13 -15
55 0 42 3 55 15 55 8 0 15 -6 15 -14z m4560 -44 c0 -29 -41 -62 -78 -62 -39 0
-40 21 -1 30 13 3 26 15 28 25 6 33 22 47 37 34 8 -6 14 -18 14 -27z m-4716
12 c11 -27 7 -34 -21 -35 l-28 -2 28 -4 c32 -5 27 -23 -7 -23 -26 0 -46 17
-46 40 0 37 61 57 74 24z m104 -26 c2 -29 0 -38 -12 -38 -11 0 -16 9 -16 30 0
17 -4 30 -10 30 -5 0 -10 -13 -10 -30 0 -20 -5 -30 -15 -30 -11 0 -15 11 -15
41 l0 40 38 -3 c35 -3 37 -5 40 -40z m193 0 l6 -38 -39 0 c-32 0 -38 3 -38 20
0 12 10 24 23 30 l22 9 -23 0 c-14 1 -20 5 -17 12 4 5 19 9 33 7 22 -2 28 -9
33 -40z m4359 2 c0 -5 -5 -10 -11 -10 -5 0 -7 5 -4 10 3 6 8 10 11 10 2 0 4
-4 4 -10z m-1122 -117 c-685 -2 -1810 -2 -2500 0 -689 1 -128 2 1247 2 1375 0
1939 -1 1253 -2z"/>
<path d="M5027 3718 c-4 -14 -10 -33 -13 -42 -5 -12 0 -16 20 -16 29 0 31 11
12 55 l-13 30 -6 -27z"/>
<path d="M5220 3681 c-23 -43 1 -78 45 -67 19 5 25 13 25 34 0 49 -49 72 -70
33z"/>
<path d="M6597 3633 c-11 -11 -8 -20 9 -27 17 -7 54 10 54 24 0 11 -53 14 -63
3z"/>
<path d="M7220 3686 c-28 -35 11 -93 48 -70 35 22 22 84 -18 84 -10 0 -23 -7
-30 -14z"/>
<path d="M3980 3030 c0 -5 5 -10 10 -10 6 0 10 5 10 10 0 6 -4 10 -10 10 -5 0
-10 -4 -10 -10z"/>
<path d="M8493 2445 c-3 -9 -3 -19 1 -22 3 -4 6 1 6 10 0 8 8 18 18 20 16 4
16 5 -1 6 -10 0 -20 -6 -24 -14z"/>
<path d="M3840 2430 c0 -5 7 -10 16 -10 8 0 12 5 9 10 -3 6 -10 10 -16 10 -5
0 -9 -4 -9 -10z"/>
<path d="M4135 2410 c-3 -5 -1 -10 4 -10 6 0 11 5 11 10 0 6 -2 10 -4 10 -3 0
-8 -4 -11 -10z"/>
</g>
</svg>
